<mxfile host="app.diagrams.net" modified="2021-08-20T06:26:20.085Z" agent="5.0 (Macintosh; Intel Mac OS X 10_15_7) AppleWebKit/537.36 (KHTML, like Gecko) Chrome/92.0.4515.131 Safari/537.36" etag="If3P63Ksd_SfB-1ORgbB" version="14.9.7" type="github">
  <diagram id="qcSVDS0ScA9_0T08C2Cv" name="Page-1">
    <mxGraphModel dx="1109" dy="573" grid="1" gridSize="10" guides="1" tooltips="1" connect="1" arrows="1" fold="1" page="1" pageScale="1" pageWidth="291" pageHeight="413" math="0" shadow="0">
      <root>
        <mxCell id="0" />
        <mxCell id="1" parent="0" />
        <mxCell id="-n2uineiYd9MRzJuJ-59-47" value="" style="edgeStyle=orthogonalEdgeStyle;rounded=0;orthogonalLoop=1;jettySize=auto;html=1;strokeWidth=2;" edge="1" parent="1" source="-n2uineiYd9MRzJuJ-59-1" target="-n2uineiYd9MRzJuJ-59-2">
          <mxGeometry relative="1" as="geometry" />
        </mxCell>
        <mxCell id="-n2uineiYd9MRzJuJ-59-1" value="Start" style="strokeWidth=2;html=1;shape=mxgraph.flowchart.start_1;whiteSpace=wrap;fillColor=#bac8d3;strokeColor=#23445d;" vertex="1" parent="1">
          <mxGeometry x="450" y="22.5" width="70" height="45" as="geometry" />
        </mxCell>
        <mxCell id="-n2uineiYd9MRzJuJ-59-46" style="edgeStyle=orthogonalEdgeStyle;rounded=0;orthogonalLoop=1;jettySize=auto;html=1;entryX=1;entryY=0.5;entryDx=0;entryDy=0;strokeWidth=2;" edge="1" parent="1" source="-n2uineiYd9MRzJuJ-59-2" target="-n2uineiYd9MRzJuJ-59-3">
          <mxGeometry relative="1" as="geometry" />
        </mxCell>
        <mxCell id="-n2uineiYd9MRzJuJ-59-2" value="Determine Player1 and Player2 based on who serves first" style="rounded=1;whiteSpace=wrap;html=1;absoluteArcSize=1;arcSize=14;strokeWidth=2;fillColor=#d5e8d4;strokeColor=#82b366;" vertex="1" parent="1">
          <mxGeometry x="270" y="20" width="150" height="50" as="geometry" />
        </mxCell>
        <mxCell id="-n2uineiYd9MRzJuJ-59-45" style="edgeStyle=orthogonalEdgeStyle;rounded=0;orthogonalLoop=1;jettySize=auto;html=1;entryX=0.5;entryY=0;entryDx=0;entryDy=0;strokeWidth=2;" edge="1" parent="1" source="-n2uineiYd9MRzJuJ-59-3" target="-n2uineiYd9MRzJuJ-59-4">
          <mxGeometry relative="1" as="geometry" />
        </mxCell>
        <mxCell id="-n2uineiYd9MRzJuJ-59-3" value="Get Player1 and Player2&#39;s weight-ages" style="rounded=1;whiteSpace=wrap;html=1;absoluteArcSize=1;arcSize=14;strokeWidth=2;fillColor=#dae8fc;strokeColor=#6c8ebf;" vertex="1" parent="1">
          <mxGeometry x="74.25" y="20" width="150" height="50" as="geometry" />
        </mxCell>
        <mxCell id="-n2uineiYd9MRzJuJ-59-12" style="edgeStyle=orthogonalEdgeStyle;rounded=0;orthogonalLoop=1;jettySize=auto;html=1;exitX=0.5;exitY=1;exitDx=0;exitDy=0;strokeWidth=2;" edge="1" parent="1" source="-n2uineiYd9MRzJuJ-59-4" target="-n2uineiYd9MRzJuJ-59-6">
          <mxGeometry relative="1" as="geometry" />
        </mxCell>
        <mxCell id="-n2uineiYd9MRzJuJ-59-13" value="Yes" style="edgeLabel;html=1;align=center;verticalAlign=middle;resizable=0;points=[];" vertex="1" connectable="0" parent="-n2uineiYd9MRzJuJ-59-12">
          <mxGeometry x="-0.5601" y="-1" relative="1" as="geometry">
            <mxPoint x="1" y="1" as="offset" />
          </mxGeometry>
        </mxCell>
        <mxCell id="-n2uineiYd9MRzJuJ-59-50" style="edgeStyle=orthogonalEdgeStyle;rounded=0;orthogonalLoop=1;jettySize=auto;html=1;strokeWidth=2;entryX=1;entryY=0.5;entryDx=0;entryDy=0;" edge="1" parent="1" source="-n2uineiYd9MRzJuJ-59-4" target="-n2uineiYd9MRzJuJ-59-41">
          <mxGeometry relative="1" as="geometry">
            <mxPoint x="420" y="1140" as="targetPoint" />
            <Array as="points">
              <mxPoint x="530" y="165" />
              <mxPoint x="530" y="1135" />
            </Array>
          </mxGeometry>
        </mxCell>
        <mxCell id="-n2uineiYd9MRzJuJ-59-51" value="No" style="edgeLabel;html=1;align=center;verticalAlign=middle;resizable=0;points=[];" vertex="1" connectable="0" parent="-n2uineiYd9MRzJuJ-59-50">
          <mxGeometry x="-0.8678" y="-1" relative="1" as="geometry">
            <mxPoint x="-57" y="-1" as="offset" />
          </mxGeometry>
        </mxCell>
        <mxCell id="-n2uineiYd9MRzJuJ-59-4" value="If game index&lt;br&gt;&amp;nbsp;&amp;lt;= 12" style="rhombus;whiteSpace=wrap;html=1;fillColor=#f8cecc;strokeColor=#b85450;" vertex="1" parent="1">
          <mxGeometry x="98.5" y="120" width="101.5" height="90" as="geometry" />
        </mxCell>
        <mxCell id="-n2uineiYd9MRzJuJ-59-15" style="edgeStyle=orthogonalEdgeStyle;rounded=0;orthogonalLoop=1;jettySize=auto;html=1;entryX=0.5;entryY=0;entryDx=0;entryDy=0;strokeWidth=2;" edge="1" parent="1" source="-n2uineiYd9MRzJuJ-59-5" target="-n2uineiYd9MRzJuJ-59-7">
          <mxGeometry relative="1" as="geometry" />
        </mxCell>
        <mxCell id="-n2uineiYd9MRzJuJ-59-16" value="Yes" style="edgeLabel;html=1;align=center;verticalAlign=middle;resizable=0;points=[];" vertex="1" connectable="0" parent="-n2uineiYd9MRzJuJ-59-15">
          <mxGeometry x="-0.0488" relative="1" as="geometry">
            <mxPoint as="offset" />
          </mxGeometry>
        </mxCell>
        <mxCell id="-n2uineiYd9MRzJuJ-59-17" value="No" style="edgeStyle=orthogonalEdgeStyle;rounded=0;orthogonalLoop=1;jettySize=auto;html=1;entryX=0;entryY=0.5;entryDx=0;entryDy=0;strokeWidth=2;" edge="1" parent="1" source="-n2uineiYd9MRzJuJ-59-5" target="-n2uineiYd9MRzJuJ-59-8">
          <mxGeometry relative="1" as="geometry" />
        </mxCell>
        <mxCell id="-n2uineiYd9MRzJuJ-59-5" value="If game index&lt;br&gt;&amp;nbsp;is even" style="rhombus;whiteSpace=wrap;html=1;fillColor=#f8cecc;strokeColor=#b85450;" vertex="1" parent="1">
          <mxGeometry x="98.5" y="330" width="101.5" height="90" as="geometry" />
        </mxCell>
        <mxCell id="-n2uineiYd9MRzJuJ-59-14" style="edgeStyle=orthogonalEdgeStyle;rounded=0;orthogonalLoop=1;jettySize=auto;html=1;exitX=0.5;exitY=1;exitDx=0;exitDy=0;entryX=0.5;entryY=0;entryDx=0;entryDy=0;strokeWidth=2;" edge="1" parent="1" source="-n2uineiYd9MRzJuJ-59-6" target="-n2uineiYd9MRzJuJ-59-5">
          <mxGeometry relative="1" as="geometry" />
        </mxCell>
        <mxCell id="-n2uineiYd9MRzJuJ-59-6" value="Generate a random number ranging from 0.0 to 100.0" style="rounded=1;whiteSpace=wrap;html=1;absoluteArcSize=1;arcSize=14;strokeWidth=2;fillColor=#d5e8d4;strokeColor=#82b366;" vertex="1" parent="1">
          <mxGeometry x="74.25" y="250" width="150" height="50" as="geometry" />
        </mxCell>
        <mxCell id="-n2uineiYd9MRzJuJ-59-20" style="edgeStyle=orthogonalEdgeStyle;rounded=0;orthogonalLoop=1;jettySize=auto;html=1;entryX=0.5;entryY=0;entryDx=0;entryDy=0;strokeWidth=2;" edge="1" parent="1" source="-n2uineiYd9MRzJuJ-59-7" target="-n2uineiYd9MRzJuJ-59-9">
          <mxGeometry relative="1" as="geometry" />
        </mxCell>
        <mxCell id="-n2uineiYd9MRzJuJ-59-21" value="Yes" style="edgeLabel;html=1;align=center;verticalAlign=middle;resizable=0;points=[];" vertex="1" connectable="0" parent="-n2uineiYd9MRzJuJ-59-20">
          <mxGeometry x="-0.0992" relative="1" as="geometry">
            <mxPoint as="offset" />
          </mxGeometry>
        </mxCell>
        <mxCell id="-n2uineiYd9MRzJuJ-59-25" value="No" style="edgeStyle=orthogonalEdgeStyle;rounded=0;orthogonalLoop=1;jettySize=auto;html=1;strokeWidth=2;" edge="1" parent="1" source="-n2uineiYd9MRzJuJ-59-7" target="-n2uineiYd9MRzJuJ-59-10">
          <mxGeometry relative="1" as="geometry" />
        </mxCell>
        <mxCell id="-n2uineiYd9MRzJuJ-59-7" value="&lt;font style=&quot;font-size: 10px&quot;&gt;If generated &lt;br&gt;random number&lt;br&gt;&amp;nbsp;is less than&lt;br&gt;&lt;b&gt;Player1&lt;/b&gt;&#39;s&lt;br&gt;&amp;nbsp;win weightage&lt;/font&gt;" style="rhombus;whiteSpace=wrap;html=1;fillColor=#f8cecc;strokeColor=#b85450;" vertex="1" parent="1">
          <mxGeometry x="93.5" y="460" width="111.5" height="90" as="geometry" />
        </mxCell>
        <mxCell id="-n2uineiYd9MRzJuJ-59-18" style="edgeStyle=orthogonalEdgeStyle;rounded=0;orthogonalLoop=1;jettySize=auto;html=1;exitX=0.5;exitY=1;exitDx=0;exitDy=0;strokeWidth=2;" edge="1" parent="1" source="-n2uineiYd9MRzJuJ-59-8" target="-n2uineiYd9MRzJuJ-59-10">
          <mxGeometry relative="1" as="geometry" />
        </mxCell>
        <mxCell id="-n2uineiYd9MRzJuJ-59-19" value="Yes" style="edgeLabel;html=1;align=center;verticalAlign=middle;resizable=0;points=[];" vertex="1" connectable="0" parent="-n2uineiYd9MRzJuJ-59-18">
          <mxGeometry x="-0.1333" relative="1" as="geometry">
            <mxPoint as="offset" />
          </mxGeometry>
        </mxCell>
        <mxCell id="-n2uineiYd9MRzJuJ-59-26" style="edgeStyle=orthogonalEdgeStyle;rounded=0;orthogonalLoop=1;jettySize=auto;html=1;strokeWidth=2;entryX=1;entryY=0.5;entryDx=0;entryDy=0;" edge="1" parent="1" source="-n2uineiYd9MRzJuJ-59-8" target="-n2uineiYd9MRzJuJ-59-9">
          <mxGeometry relative="1" as="geometry">
            <mxPoint x="490" y="620" as="targetPoint" />
            <Array as="points">
              <mxPoint x="490" y="375" />
              <mxPoint x="490" y="635" />
            </Array>
          </mxGeometry>
        </mxCell>
        <mxCell id="-n2uineiYd9MRzJuJ-59-27" value="No" style="edgeLabel;html=1;align=center;verticalAlign=middle;resizable=0;points=[];" vertex="1" connectable="0" parent="-n2uineiYd9MRzJuJ-59-26">
          <mxGeometry x="-0.7825" y="2" relative="1" as="geometry">
            <mxPoint x="-26" y="-22" as="offset" />
          </mxGeometry>
        </mxCell>
        <mxCell id="-n2uineiYd9MRzJuJ-59-8" value="&lt;font style=&quot;font-size: 10px&quot;&gt;If generated &lt;br&gt;random number&lt;br&gt;&amp;nbsp;is less than&lt;br&gt;&lt;b&gt;Player2&lt;/b&gt;&#39;s &lt;br&gt;win weightage&lt;/font&gt;" style="rhombus;whiteSpace=wrap;html=1;fillColor=#f8cecc;strokeColor=#b85450;" vertex="1" parent="1">
          <mxGeometry x="340" y="330" width="110" height="90" as="geometry" />
        </mxCell>
        <mxCell id="-n2uineiYd9MRzJuJ-59-23" style="edgeStyle=orthogonalEdgeStyle;rounded=0;orthogonalLoop=1;jettySize=auto;html=1;entryX=0.5;entryY=0;entryDx=0;entryDy=0;strokeWidth=2;" edge="1" parent="1" source="-n2uineiYd9MRzJuJ-59-9" target="-n2uineiYd9MRzJuJ-59-11">
          <mxGeometry relative="1" as="geometry" />
        </mxCell>
        <mxCell id="-n2uineiYd9MRzJuJ-59-9" value="Add one game point for Player1" style="rounded=1;whiteSpace=wrap;html=1;absoluteArcSize=1;arcSize=14;strokeWidth=2;fillColor=#fff2cc;strokeColor=#d6b656;" vertex="1" parent="1">
          <mxGeometry x="74.25" y="610" width="150" height="50" as="geometry" />
        </mxCell>
        <mxCell id="-n2uineiYd9MRzJuJ-59-24" style="edgeStyle=orthogonalEdgeStyle;rounded=0;orthogonalLoop=1;jettySize=auto;html=1;strokeWidth=2;strokeColor=#00CC00;" edge="1" parent="1" source="-n2uineiYd9MRzJuJ-59-10">
          <mxGeometry relative="1" as="geometry">
            <mxPoint x="150" y="690" as="targetPoint" />
            <Array as="points">
              <mxPoint x="391" y="690" />
            </Array>
          </mxGeometry>
        </mxCell>
        <mxCell id="-n2uineiYd9MRzJuJ-59-10" value="Add one game point for Player2" style="rounded=1;whiteSpace=wrap;html=1;absoluteArcSize=1;arcSize=14;strokeWidth=2;fillColor=#fff2cc;strokeColor=#d6b656;" vertex="1" parent="1">
          <mxGeometry x="315.75" y="480" width="150" height="50" as="geometry" />
        </mxCell>
        <mxCell id="-n2uineiYd9MRzJuJ-59-29" value="No" style="edgeStyle=orthogonalEdgeStyle;rounded=0;orthogonalLoop=1;jettySize=auto;html=1;entryX=0;entryY=0.5;entryDx=0;entryDy=0;strokeWidth=2;" edge="1" parent="1" source="-n2uineiYd9MRzJuJ-59-11" target="-n2uineiYd9MRzJuJ-59-28">
          <mxGeometry x="-0.3073" relative="1" as="geometry">
            <mxPoint as="offset" />
          </mxGeometry>
        </mxCell>
        <mxCell id="-n2uineiYd9MRzJuJ-59-31" value="" style="edgeStyle=orthogonalEdgeStyle;rounded=0;orthogonalLoop=1;jettySize=auto;html=1;strokeWidth=2;" edge="1" parent="1" source="-n2uineiYd9MRzJuJ-59-11" target="-n2uineiYd9MRzJuJ-59-30">
          <mxGeometry relative="1" as="geometry" />
        </mxCell>
        <mxCell id="-n2uineiYd9MRzJuJ-59-32" value="Yes" style="edgeLabel;html=1;align=center;verticalAlign=middle;resizable=0;points=[];" vertex="1" connectable="0" parent="-n2uineiYd9MRzJuJ-59-31">
          <mxGeometry x="-0.8076" y="-2" relative="1" as="geometry">
            <mxPoint x="13" y="-2" as="offset" />
          </mxGeometry>
        </mxCell>
        <mxCell id="-n2uineiYd9MRzJuJ-59-11" value="&lt;span style=&quot;font-size: 10px&quot;&gt;Generate a&amp;nbsp;random number to check &lt;br&gt;&lt;b&gt;Player1&lt;/b&gt; is injured&amp;nbsp;&lt;/span&gt;" style="rhombus;whiteSpace=wrap;html=1;fillColor=#f8cecc;strokeColor=#b85450;" vertex="1" parent="1">
          <mxGeometry x="88.5" y="720" width="121.5" height="100" as="geometry" />
        </mxCell>
        <mxCell id="-n2uineiYd9MRzJuJ-59-33" value="Yes" style="edgeStyle=orthogonalEdgeStyle;rounded=0;orthogonalLoop=1;jettySize=auto;html=1;strokeWidth=2;" edge="1" parent="1" source="-n2uineiYd9MRzJuJ-59-28">
          <mxGeometry x="-0.7568" relative="1" as="geometry">
            <mxPoint x="350" y="770" as="targetPoint" />
            <Array as="points">
              <mxPoint x="350" y="870" />
            </Array>
            <mxPoint as="offset" />
          </mxGeometry>
        </mxCell>
        <mxCell id="-n2uineiYd9MRzJuJ-59-35" value="" style="edgeStyle=orthogonalEdgeStyle;rounded=0;orthogonalLoop=1;jettySize=auto;html=1;strokeWidth=2;entryX=0.5;entryY=0;entryDx=0;entryDy=0;" edge="1" parent="1" source="-n2uineiYd9MRzJuJ-59-28" target="-n2uineiYd9MRzJuJ-59-36">
          <mxGeometry relative="1" as="geometry">
            <mxPoint x="246.79999999999995" y="950" as="targetPoint" />
          </mxGeometry>
        </mxCell>
        <mxCell id="-n2uineiYd9MRzJuJ-59-38" value="No" style="edgeLabel;html=1;align=center;verticalAlign=middle;resizable=0;points=[];" vertex="1" connectable="0" parent="-n2uineiYd9MRzJuJ-59-35">
          <mxGeometry x="-0.4485" y="1" relative="1" as="geometry">
            <mxPoint as="offset" />
          </mxGeometry>
        </mxCell>
        <mxCell id="-n2uineiYd9MRzJuJ-59-28" value="&lt;span style=&quot;font-size: 10px&quot;&gt;Generate a&amp;nbsp;random number to check&lt;br&gt;&amp;nbsp;&amp;nbsp;&lt;b&gt;Player2&lt;/b&gt; is injured&amp;nbsp;&lt;/span&gt;" style="rhombus;whiteSpace=wrap;html=1;fillColor=#f8cecc;strokeColor=#b85450;" vertex="1" parent="1">
          <mxGeometry x="186" y="820" width="121.5" height="100" as="geometry" />
        </mxCell>
        <mxCell id="-n2uineiYd9MRzJuJ-59-44" style="edgeStyle=orthogonalEdgeStyle;rounded=0;orthogonalLoop=1;jettySize=auto;html=1;strokeWidth=2;entryX=1;entryY=0.5;entryDx=0;entryDy=0;strokeColor=#00CC00;" edge="1" parent="1" source="-n2uineiYd9MRzJuJ-59-30" target="-n2uineiYd9MRzJuJ-59-52">
          <mxGeometry relative="1" as="geometry">
            <mxPoint x="440" y="1240" as="targetPoint" />
            <Array as="points">
              <mxPoint x="465" y="1235" />
            </Array>
          </mxGeometry>
        </mxCell>
        <mxCell id="-n2uineiYd9MRzJuJ-59-30" value="Match is forfeited, Conclude the non injured player as the winner" style="rounded=1;whiteSpace=wrap;html=1;absoluteArcSize=1;arcSize=14;strokeWidth=2;fillColor=#dae8fc;strokeColor=#6c8ebf;" vertex="1" parent="1">
          <mxGeometry x="390" y="745" width="150" height="50" as="geometry" />
        </mxCell>
        <mxCell id="-n2uineiYd9MRzJuJ-59-39" style="edgeStyle=orthogonalEdgeStyle;rounded=0;orthogonalLoop=1;jettySize=auto;html=1;strokeWidth=2;entryX=0;entryY=0.5;entryDx=0;entryDy=0;" edge="1" parent="1" source="-n2uineiYd9MRzJuJ-59-36" target="-n2uineiYd9MRzJuJ-59-4">
          <mxGeometry relative="1" as="geometry">
            <mxPoint x="50" y="160" as="targetPoint" />
            <Array as="points">
              <mxPoint x="50" y="1010" />
              <mxPoint x="50" y="165" />
            </Array>
          </mxGeometry>
        </mxCell>
        <mxCell id="-n2uineiYd9MRzJuJ-59-40" value="No" style="edgeLabel;html=1;align=center;verticalAlign=middle;resizable=0;points=[];" vertex="1" connectable="0" parent="-n2uineiYd9MRzJuJ-59-39">
          <mxGeometry x="-0.8932" y="-1" relative="1" as="geometry">
            <mxPoint as="offset" />
          </mxGeometry>
        </mxCell>
        <mxCell id="-n2uineiYd9MRzJuJ-59-42" style="edgeStyle=orthogonalEdgeStyle;rounded=0;orthogonalLoop=1;jettySize=auto;html=1;strokeWidth=2;exitX=0.5;exitY=1;exitDx=0;exitDy=0;entryX=0.5;entryY=0;entryDx=0;entryDy=0;" edge="1" parent="1" source="-n2uineiYd9MRzJuJ-59-36" target="-n2uineiYd9MRzJuJ-59-41">
          <mxGeometry relative="1" as="geometry">
            <mxPoint x="340" y="1020" as="targetPoint" />
          </mxGeometry>
        </mxCell>
        <mxCell id="-n2uineiYd9MRzJuJ-59-43" value="Yes" style="edgeLabel;html=1;align=center;verticalAlign=middle;resizable=0;points=[];" vertex="1" connectable="0" parent="-n2uineiYd9MRzJuJ-59-42">
          <mxGeometry x="-0.2617" y="5" relative="1" as="geometry">
            <mxPoint x="-5" as="offset" />
          </mxGeometry>
        </mxCell>
        <mxCell id="-n2uineiYd9MRzJuJ-59-36" value="&lt;span style=&quot;font-size: 10px&quot;&gt;Check if a player&lt;br&gt;&amp;nbsp;has already&lt;br&gt;&amp;nbsp;won the set&lt;/span&gt;" style="rhombus;whiteSpace=wrap;html=1;fillColor=#f8cecc;strokeColor=#b85450;" vertex="1" parent="1">
          <mxGeometry x="186" y="960" width="121.5" height="100" as="geometry" />
        </mxCell>
        <mxCell id="-n2uineiYd9MRzJuJ-59-53" style="edgeStyle=orthogonalEdgeStyle;rounded=0;orthogonalLoop=1;jettySize=auto;html=1;entryX=0.5;entryY=0;entryDx=0;entryDy=0;strokeWidth=2;" edge="1" parent="1" source="-n2uineiYd9MRzJuJ-59-41" target="-n2uineiYd9MRzJuJ-59-52">
          <mxGeometry relative="1" as="geometry" />
        </mxCell>
        <mxCell id="-n2uineiYd9MRzJuJ-59-41" value="Assess the player&#39;s games points and confirm the winner" style="rounded=1;whiteSpace=wrap;html=1;absoluteArcSize=1;arcSize=14;strokeWidth=2;fillColor=#d5e8d4;strokeColor=#82b366;" vertex="1" parent="1">
          <mxGeometry x="171.75" y="1110" width="150" height="50" as="geometry" />
        </mxCell>
        <mxCell id="-n2uineiYd9MRzJuJ-59-52" value="Finalize set winner or Confirm match is forfeited" style="rounded=1;whiteSpace=wrap;html=1;absoluteArcSize=1;arcSize=14;strokeWidth=2;fillColor=#e1d5e7;strokeColor=#9673a6;" vertex="1" parent="1">
          <mxGeometry x="171.75" y="1210" width="150" height="50" as="geometry" />
        </mxCell>
      </root>
    </mxGraphModel>
  </diagram>
</mxfile>
